<?xml version="1.0" encoding="UTF-8" standalone="no"?>
<svg
   xmlns:dc="http://purl.org/dc/elements/1.1/"
   xmlns:cc="http://creativecommons.org/ns#"
   xmlns:rdf="http://www.w3.org/1999/02/22-rdf-syntax-ns#"
   xmlns:svg="http://www.w3.org/2000/svg"
   xmlns="http://www.w3.org/2000/svg"
   xmlns:xlink="http://www.w3.org/1999/xlink"
   xmlns:sodipodi="http://sodipodi.sourceforge.net/DTD/sodipodi-0.dtd"
   xmlns:inkscape="http://www.inkscape.org/namespaces/inkscape"
   width="281.09109"
   height="78.704353"
   version="1.1"
   id="svg12"
   sodipodi:docname="digitaljs_text_right.svg"
   inkscape:version="0.92.1 r15371"
   inkscape:export-filename="/home/tilk/Pobrane/digitaljs7-rot.svg.png"
   inkscape:export-xdpi="41.918739"
   inkscape:export-ydpi="41.918739">
  <metadata
     id="metadata18">
    <rdf:RDF>
      <cc:Work
         rdf:about="">
        <dc:format>image/svg+xml</dc:format>
        <dc:type
           rdf:resource="http://purl.org/dc/dcmitype/StillImage" />
        <dc:title></dc:title>
      </cc:Work>
    </rdf:RDF>
  </metadata>
  <defs
     id="defs16">
    <linearGradient
       inkscape:collect="always"
       id="linearGradient4583">
      <stop
         style="stop-color:#f6aff6;stop-opacity:1;"
         offset="0"
         id="stop4579" />
      <stop
         style="stop-color:#ffffff;stop-opacity:1"
         offset="1"
         id="stop4581" />
    </linearGradient>
    <linearGradient
       inkscape:collect="always"
       id="linearGradient4504">
      <stop
         style="stop-color:#ff00ff;stop-opacity:1;"
         offset="0"
         id="stop4500" />
      <stop
         style="stop-color:#fffdff;stop-opacity:1"
         offset="1"
         id="stop4502" />
    </linearGradient>
    <linearGradient
       inkscape:collect="always"
       xlink:href="#linearGradient4504"
       id="linearGradient4506"
       x1="77.657043"
       y1="71.93866"
       x2="115.66291"
       y2="71.93866"
       gradientUnits="userSpaceOnUse"
       gradientTransform="rotate(-45,24.811438,115.76259)" />
    <linearGradient
       inkscape:collect="always"
       xlink:href="#linearGradient4583"
       id="linearGradient4585"
       x1="55.592831"
       y1="76.272705"
       x2="75.755585"
       y2="76.272705"
       gradientUnits="userSpaceOnUse"
       gradientTransform="rotate(-45,20.491538,119.88742)" />
    <filter
       inkscape:collect="always"
       style="color-interpolation-filters:sRGB"
       id="filter4509"
       x="-0.03609591"
       width="1.0721918"
       y="-0.035904601"
       height="1.0718092">
      <feGaussianBlur
         inkscape:collect="always"
         stdDeviation="0.74771825"
         id="feGaussianBlur4511" />
    </filter>
  </defs>
  <sodipodi:namedview
     pagecolor="#ffffff"
     bordercolor="#666666"
     borderopacity="1"
     objecttolerance="10"
     gridtolerance="10"
     guidetolerance="10"
     inkscape:pageopacity="0"
     inkscape:pageshadow="2"
     inkscape:window-width="1920"
     inkscape:window-height="1016"
     id="namedview14"
     showgrid="false"
     showguides="false"
     fit-margin-top="5"
     fit-margin-bottom="5"
     fit-margin-left="5"
     fit-margin-right="5"
     inkscape:zoom="2.8284271"
     inkscape:cx="112.10376"
     inkscape:cy="23.995549"
     inkscape:window-x="0"
     inkscape:window-y="27"
     inkscape:window-maximized="1"
     inkscape:current-layer="svg12"
     units="px"
     inkscape:pagecheckerboard="true" />
  <path
     inkscape:connector-curvature="0"
     style="color:#000000;font-style:normal;font-variant:normal;font-weight:normal;font-stretch:normal;font-size:medium;line-height:normal;font-family:sans-serif;font-variant-ligatures:normal;font-variant-position:normal;font-variant-caps:normal;font-variant-numeric:normal;font-variant-alternates:normal;font-feature-settings:normal;text-indent:0;text-align:start;text-decoration:none;text-decoration-line:none;text-decoration-style:solid;text-decoration-color:#000000;letter-spacing:normal;word-spacing:normal;text-transform:none;writing-mode:lr-tb;direction:ltr;text-orientation:mixed;dominant-baseline:auto;baseline-shift:baseline;text-anchor:start;white-space:normal;shape-padding:0;clip-rule:nonzero;display:inline;overflow:visible;visibility:visible;opacity:1;isolation:auto;mix-blend-mode:normal;color-interpolation:sRGB;color-interpolation-filters:linearRGB;solid-color:#000000;solid-opacity:1;vector-effect:none;fill:url(#linearGradient4585);fill-opacity:1;fill-rule:nonzero;stroke:none;stroke-width:5;stroke-linecap:round;stroke-linejoin:round;stroke-miterlimit:4;stroke-dasharray:none;stroke-dashoffset:0;stroke-opacity:1;paint-order:markers stroke fill;color-rendering:auto;image-rendering:auto;shape-rendering:auto;text-rendering:auto;enable-background:accumulate"
     d="m 6.9018862,40.67534 c -0.36536,0.40964 -1.1451,1.5779 -1.53713,4.37384 -0.43977,3.1364 3.21247,7.61511 3.55073,9.1772 0.75386,3.62994 -0.082,4.3623 5.5560298,10.0003 5.63802,5.63803 6.37038,4.80219 10.00032,5.55605 1.56209,0.33826 6.0408,3.9905 9.1772,3.55073 3.72791,-0.52271 4.56166,-1.73324 4.56166,-1.73324 0.976167,-0.97637 0.0315,-8.19946 -0.94465,-9.17583 l -6.12918,-9.66471 c -0.97637,-0.97617 -4.71376,-6.35743 -11.66726,-9.78072 -7.24713,-3.56785 -11.8368898,-2.48588 -12.3633198,-2.34505 l -0.008,-0.1464 c 0,0 -0.0743,0.0513 -0.19614,0.18779 z"
     id="rect4527" />
  <path
     style="color:#000000;font-style:normal;font-variant:normal;font-weight:normal;font-stretch:normal;font-size:medium;line-height:normal;font-family:sans-serif;font-variant-ligatures:normal;font-variant-position:normal;font-variant-caps:normal;font-variant-numeric:normal;font-variant-alternates:normal;font-feature-settings:normal;text-indent:0;text-align:start;text-decoration:none;text-decoration-line:none;text-decoration-style:solid;text-decoration-color:#000000;letter-spacing:normal;word-spacing:normal;text-transform:none;writing-mode:lr-tb;direction:ltr;text-orientation:mixed;dominant-baseline:auto;baseline-shift:baseline;text-anchor:start;white-space:normal;shape-padding:0;clip-rule:nonzero;display:inline;overflow:visible;visibility:visible;opacity:1;isolation:auto;mix-blend-mode:normal;color-interpolation:sRGB;color-interpolation-filters:linearRGB;solid-color:#000000;solid-opacity:1;vector-effect:none;fill:#d070d0;fill-opacity:1;fill-rule:nonzero;stroke:none;stroke-width:1.04209423;stroke-linecap:butt;stroke-linejoin:miter;stroke-miterlimit:4;stroke-dasharray:none;stroke-dashoffset:0;stroke-opacity:1;color-rendering:auto;image-rendering:auto;shape-rendering:auto;text-rendering:auto;enable-background:accumulate"
     d="m 36.568496,71.82667 c -0.64593,0.28464 -1.34825,0.59932 -2.79666,0.8024 -1.33802,0.18762 -3.18535,-0.54267 -4.86412,-1.42802 -0.83939,-0.44267 -1.63771,-0.91423 -2.33539,-1.30235 -0.69768,-0.38811 -1.26429,-0.69874 -1.79401,-0.81345 h -0.003 -0.003 c -3.71857,-0.77226 -4.13263,0.18735 -9.73652,-5.41655 -5.6038998,-5.60389 -4.64291,-6.01657 -5.4151698,-9.73514 v -0.003 -0.003 c -0.11471,-0.52972 -0.42533,-1.09633 -0.81345,-1.79401 -0.38812,-0.69768 -0.86105,-1.49738 -1.30373,-2.33677 -0.88535,-1.67877 -1.61563,-3.5261 -1.42802,-4.86412 0.13031,-1.05066 0.45449,-2.09326 0.79011,-3.03269 l 0.23211,-1.4128 c -1.47298,1.47735 -1.80575,2.61476 -2.05375,4.30061 -0.25216,1.79839 0.62469,3.75988 1.5399,5.49527 0.4576,0.8677 0.93401,1.67661 1.31201,2.35611 0.378,0.67949 0.6513,1.25817 0.70573,1.5095 0.73368,3.53714 0.0275,4.58784 5.6968998,10.25719 5.67213,5.67214 6.72141,4.96422 10.26272,5.69968 0.25237,0.0554 0.82625,0.32594 1.50398,0.70296 0.6795,0.378 1.48979,0.85579 2.35748,1.3134 1.73539,0.91521 3.69551,1.79067 5.49389,1.53851 2.28336,-0.3033 2.09531,-0.41478 4.29411,-2.06137 z"
     id="path4-6-7"
     inkscape:connector-curvature="0"
     sodipodi:nodetypes="cssscccscccssccccsscscssccc" />
  <path
     style="color:#000000;font-style:normal;font-variant:normal;font-weight:normal;font-stretch:normal;font-size:medium;line-height:normal;font-family:sans-serif;font-variant-ligatures:normal;font-variant-position:normal;font-variant-caps:normal;font-variant-numeric:normal;font-variant-alternates:normal;font-feature-settings:normal;text-indent:0;text-align:start;text-decoration:none;text-decoration-line:none;text-decoration-style:solid;text-decoration-color:#000000;letter-spacing:normal;word-spacing:normal;text-transform:none;writing-mode:lr-tb;direction:ltr;text-orientation:mixed;dominant-baseline:auto;baseline-shift:baseline;text-anchor:start;white-space:normal;shape-padding:0;clip-rule:nonzero;display:inline;overflow:visible;visibility:visible;opacity:0.93000034;isolation:auto;mix-blend-mode:normal;color-interpolation:sRGB;color-interpolation-filters:linearRGB;solid-color:#000000;solid-opacity:1;vector-effect:none;fill:url(#linearGradient4506);fill-opacity:1;fill-rule:nonzero;stroke:none;stroke-width:5;stroke-linecap:round;stroke-linejoin:round;stroke-miterlimit:4;stroke-dasharray:none;stroke-dashoffset:0;stroke-opacity:1;paint-order:markers stroke fill;filter:url(#filter4509);color-rendering:auto;image-rendering:auto;shape-rendering:auto;text-rendering:auto;enable-background:accumulate"
     d="m 9.6836162,37.901298 c -1.03096,0.965632 13.4141198,7.215642 14.4126098,8.214812 l 6.87077,4.8201 c 1.23713,1.2372 9.111167,19.67323 9.829317,18.0778 l 1.48025,-1.47966 14.23835,-27.18357 c 0.44426,-0.98849 3.50095,-17.942702 2.69768,-18.670192 l -4.78908,-2.43758 c -0.75641,-0.68454 -15.75928,1.98757 -16.676857,2.43344 l -26.58279,14.7452 c -0.22492,0.10977 -1.2977598,1.30837 -1.4802498,1.47965 z"
     id="rect4487"
     inkscape:connector-curvature="0"
     sodipodi:nodetypes="ccccccccccc" />
  <path
     d="m 24.131426,46.0815 -14.5091998,14.5092 m 23.0629898,-6.09243 -14.57771,14.57772"
     id="path2"
     inkscape:connector-curvature="0"
     style="fill:#820082;fill-opacity:1;stroke:#800080;stroke-width:2.64862204;stroke-miterlimit:4;stroke-dasharray:none;stroke-opacity:1"
     sodipodi:nodetypes="cccc" />
  <path
     sodipodi:nodetypes="ccccsccccsc"
     inkscape:connector-curvature="0"
     style="fill:#820082;fill-opacity:1;fill-rule:evenodd"
     id="path4"
     d="m 40.265983,65.30169 c 0.74036,2.9994 0.53033,3.71232 0.53033,3.71232 l -2.585357,2.58536 -0.30936,-3.13779 c 0,0 -2.36442,-10.36357 -9.8332,-17.83235 -7.46878,-7.46878 -17.83235,-9.83321 -17.83235,-9.83321 l -3.1377898,-0.30936 2.58536,-2.585362 c 1.2153398,0.11049 2.1765698,0.16573 3.6902198,0.552432 3.51611,0.86769 11.17787,4.41616 16.81588,10.05418 5.62196,5.62195 9.180167,13.27672 10.076267,16.79378 z" />
  <path
     style="fill:#820082;fill-opacity:1;fill-rule:evenodd"
     d="m 11.163866,36.421648 3.13778,0.30936 c 0,0 10.36357,2.364422 17.83235,9.833202 7.468777,7.46878 9.833207,17.83234 9.833207,17.83234 l 0.30936,3.1378 c 0,0 7.55854,-8.56199 10.71708,-13.54552 3.15855,-4.98353 4.58269,-7.59135 6.51864,-12.75002 1.93596,-5.158672 3.43693,-13.664742 0.83831,-22.891202 -9.22646,-2.59862 -17.73253,-1.09764 -22.891197,0.83831 -5.15867,1.93595 -7.76649,3.3601 -12.75002,6.51864 -4.98353,3.15854 -13.54551,10.71709 -13.54551,10.71709 z m 9.40921,-1.77191 c 0,0 3.76278,-3.15456 7.67184,-5.40964 3.90906,-2.25509 8.01135,-4.67548 11.623057,-5.70105 3.61171,-1.02558 7.62251,-2.91619 17.34622,-2.05504 1.56826,9.72372 -1.02946,13.73451 -2.05503,17.346232 -1.02558,3.6117 -3.44596,7.714 -5.70105,11.62306 -2.25509,3.90906 -5.40964,7.67183 -5.40964,7.67183 -0.87317,-3.52282 -2.75699,-9.47449 -8.378937,-15.09645 -5.62196,-5.621962 -11.57364,-7.505782 -15.09646,-8.378942 z"
     id="path6-5"
     inkscape:connector-curvature="0"
     sodipodi:nodetypes="ccsccsscssccsscsscsc" />
  <path
     d="m 65.545053,13.152558 a 4.0000005,4.0000005 0 1 1 -5.65685,5.65686 4.0000005,4.0000005 0 1 1 5.65685,-5.65686 z"
     id="path10"
     style="fill:#40c040;fill-opacity:1;stroke:#005a00;stroke-width:3;stroke-opacity:1"
     inkscape:connector-curvature="0" />
  <path
     inkscape:connector-curvature="0"
     style="fill:none;stroke:#005a00;stroke-width:2.79227352;stroke-miterlimit:4;stroke-dasharray:none;stroke-opacity:1"
     d="m 65.073643,13.623968 7.63676,-7.6367496"
     id="path2-3"
     sodipodi:nodetypes="cc" />
  <text
     xml:space="preserve"
     style="font-style:normal;font-variant:normal;font-weight:normal;font-stretch:normal;font-size:1350px;line-height:125%;font-family:orkney;-inkscape-font-specification:orkney;letter-spacing:0px;word-spacing:0px;fill:#000000;fill-opacity:1;stroke:none;stroke-width:1px;stroke-linecap:butt;stroke-linejoin:miter;stroke-opacity:1"
     x="-154.50282"
     y="63.148003"
     id="text4501"><tspan
       sodipodi:role="line"
       id="tspan4499"
       x="-154.50282"
       y="1244.3979"
       style="font-size:74.66666412px" /></text>
  <text
     xml:space="preserve"
     style="font-style:normal;font-variant:normal;font-weight:normal;font-stretch:normal;font-size:32px;line-height:125%;font-family:orkney;-inkscape-font-specification:orkney;letter-spacing:0px;word-spacing:0px;fill:#820082;fill-opacity:1;stroke:none;stroke-width:1px;stroke-linecap:butt;stroke-linejoin:miter;stroke-opacity:1"
     x="83.438606"
     y="56.076939"
     id="text4505"><tspan
       sodipodi:role="line"
       id="tspan4503"
       x="83.438606"
       y="56.076939"
       style="font-size:48px;fill:#820082;fill-opacity:1">DigitalJS</tspan></text>
</svg>
